<mxfile host="app.diagrams.net" modified="2024-04-19T05:53:40.729Z" agent="Mozilla/5.0 (Windows NT 10.0; Win64; x64) AppleWebKit/537.36 (KHTML, like Gecko) Chrome/123.0.0.0 Safari/537.36 Edg/123.0.0.0" etag="IEiZ0dsIujNiiMs_5fhF" version="24.2.5" type="device">
  <diagram name="Page-1" id="9AQTAqLmqw89JtDIQu3y">
    <mxGraphModel dx="1171" dy="546" grid="1" gridSize="10" guides="1" tooltips="1" connect="1" arrows="1" fold="1" page="1" pageScale="1" pageWidth="850" pageHeight="1100" math="0" shadow="0">
      <root>
        <mxCell id="0" />
        <mxCell id="1" parent="0" />
        <mxCell id="Ej15U9OfNQiC9HSzGDF1-23" value="GameObject" style="swimlane;fontStyle=1;align=center;verticalAlign=top;childLayout=stackLayout;horizontal=1;startSize=26;horizontalStack=0;resizeParent=1;resizeParentMax=0;resizeLast=0;collapsible=1;marginBottom=0;whiteSpace=wrap;html=1;" parent="1" vertex="1">
          <mxGeometry x="273" y="223" width="210" height="164" as="geometry" />
        </mxCell>
        <mxCell id="Ej15U9OfNQiC9HSzGDF1-29" value="# x: Int" style="text;strokeColor=none;fillColor=none;align=left;verticalAlign=top;spacingLeft=4;spacingRight=4;overflow=hidden;rotatable=0;points=[[0,0.5],[1,0.5]];portConstraint=eastwest;whiteSpace=wrap;html=1;" parent="Ej15U9OfNQiC9HSzGDF1-23" vertex="1">
          <mxGeometry y="26" width="210" height="26" as="geometry" />
        </mxCell>
        <mxCell id="Ej15U9OfNQiC9HSzGDF1-24" value="# y: Int" style="text;strokeColor=none;fillColor=none;align=left;verticalAlign=top;spacingLeft=4;spacingRight=4;overflow=hidden;rotatable=0;points=[[0,0.5],[1,0.5]];portConstraint=eastwest;whiteSpace=wrap;html=1;" parent="Ej15U9OfNQiC9HSzGDF1-23" vertex="1">
          <mxGeometry y="52" width="210" height="26" as="geometry" />
        </mxCell>
        <mxCell id="Ej15U9OfNQiC9HSzGDF1-25" value="" style="line;strokeWidth=1;fillColor=none;align=left;verticalAlign=middle;spacingTop=-1;spacingLeft=3;spacingRight=3;rotatable=0;labelPosition=right;points=[];portConstraint=eastwest;strokeColor=inherit;" parent="Ej15U9OfNQiC9HSzGDF1-23" vertex="1">
          <mxGeometry y="78" width="210" height="8" as="geometry" />
        </mxCell>
        <mxCell id="Ej15U9OfNQiC9HSzGDF1-30" value="&lt;div&gt;+ GameObject(x: int, y: int)&lt;/div&gt;&lt;div&gt;&lt;br&gt;&lt;/div&gt;" style="text;strokeColor=none;fillColor=none;align=left;verticalAlign=top;spacingLeft=4;spacingRight=4;overflow=hidden;rotatable=0;points=[[0,0.5],[1,0.5]];portConstraint=eastwest;whiteSpace=wrap;html=1;" parent="Ej15U9OfNQiC9HSzGDF1-23" vertex="1">
          <mxGeometry y="86" width="210" height="26" as="geometry" />
        </mxCell>
        <mxCell id="Ej15U9OfNQiC9HSzGDF1-31" value="+ draw(): void = 0&amp;nbsp;" style="text;strokeColor=none;fillColor=none;align=left;verticalAlign=top;spacingLeft=4;spacingRight=4;overflow=hidden;rotatable=0;points=[[0,0.5],[1,0.5]];portConstraint=eastwest;whiteSpace=wrap;html=1;" parent="Ej15U9OfNQiC9HSzGDF1-23" vertex="1">
          <mxGeometry y="112" width="210" height="26" as="geometry" />
        </mxCell>
        <mxCell id="Ej15U9OfNQiC9HSzGDF1-26" value="+ move(dx : int , dy ; int): void" style="text;strokeColor=none;fillColor=none;align=left;verticalAlign=top;spacingLeft=4;spacingRight=4;overflow=hidden;rotatable=0;points=[[0,0.5],[1,0.5]];portConstraint=eastwest;whiteSpace=wrap;html=1;" parent="Ej15U9OfNQiC9HSzGDF1-23" vertex="1">
          <mxGeometry y="138" width="210" height="26" as="geometry" />
        </mxCell>
        <mxCell id="Ej15U9OfNQiC9HSzGDF1-32" value="Ship" style="swimlane;fontStyle=1;align=center;verticalAlign=top;childLayout=stackLayout;horizontal=1;startSize=26;horizontalStack=0;resizeParent=1;resizeParentMax=0;resizeLast=0;collapsible=1;marginBottom=0;whiteSpace=wrap;html=1;" parent="1" vertex="1">
          <mxGeometry x="546" y="500" width="210" height="138" as="geometry" />
        </mxCell>
        <mxCell id="Ej15U9OfNQiC9HSzGDF1-35" value="" style="line;strokeWidth=1;fillColor=none;align=left;verticalAlign=middle;spacingTop=-1;spacingLeft=3;spacingRight=3;rotatable=0;labelPosition=right;points=[];portConstraint=eastwest;strokeColor=inherit;" parent="Ej15U9OfNQiC9HSzGDF1-32" vertex="1">
          <mxGeometry y="26" width="210" height="8" as="geometry" />
        </mxCell>
        <mxCell id="Ej15U9OfNQiC9HSzGDF1-36" value="+ Ship (x : int , y : int)&amp;nbsp;" style="text;strokeColor=none;fillColor=none;align=left;verticalAlign=top;spacingLeft=4;spacingRight=4;overflow=hidden;rotatable=0;points=[[0,0.5],[1,0.5]];portConstraint=eastwest;whiteSpace=wrap;html=1;" parent="Ej15U9OfNQiC9HSzGDF1-32" vertex="1">
          <mxGeometry y="34" width="210" height="26" as="geometry" />
        </mxCell>
        <mxCell id="Ej15U9OfNQiC9HSzGDF1-37" value="+ draw(): void&amp;nbsp; &amp;nbsp;" style="text;strokeColor=none;fillColor=none;align=left;verticalAlign=top;spacingLeft=4;spacingRight=4;overflow=hidden;rotatable=0;points=[[0,0.5],[1,0.5]];portConstraint=eastwest;whiteSpace=wrap;html=1;" parent="Ej15U9OfNQiC9HSzGDF1-32" vertex="1">
          <mxGeometry y="60" width="210" height="26" as="geometry" />
        </mxCell>
        <mxCell id="Ej15U9OfNQiC9HSzGDF1-41" value="+ moveLeft(): void" style="text;strokeColor=none;fillColor=none;align=left;verticalAlign=top;spacingLeft=4;spacingRight=4;overflow=hidden;rotatable=0;points=[[0,0.5],[1,0.5]];portConstraint=eastwest;whiteSpace=wrap;html=1;" parent="Ej15U9OfNQiC9HSzGDF1-32" vertex="1">
          <mxGeometry y="86" width="210" height="26" as="geometry" />
        </mxCell>
        <mxCell id="Ej15U9OfNQiC9HSzGDF1-40" value="+ moveRight(int gameWidth): void" style="text;strokeColor=none;fillColor=none;align=left;verticalAlign=top;spacingLeft=4;spacingRight=4;overflow=hidden;rotatable=0;points=[[0,0.5],[1,0.5]];portConstraint=eastwest;whiteSpace=wrap;html=1;" parent="Ej15U9OfNQiC9HSzGDF1-32" vertex="1">
          <mxGeometry y="112" width="210" height="26" as="geometry" />
        </mxCell>
        <mxCell id="Ej15U9OfNQiC9HSzGDF1-50" style="edgeStyle=orthogonalEdgeStyle;rounded=0;orthogonalLoop=1;jettySize=auto;html=1;" parent="1" source="Ej15U9OfNQiC9HSzGDF1-23" target="Ej15U9OfNQiC9HSzGDF1-42" edge="1">
          <mxGeometry relative="1" as="geometry">
            <Array as="points">
              <mxPoint x="410" y="480" />
              <mxPoint x="410" y="480" />
            </Array>
          </mxGeometry>
        </mxCell>
        <mxCell id="Ej15U9OfNQiC9HSzGDF1-42" value="Enemy" style="swimlane;fontStyle=1;align=center;verticalAlign=top;childLayout=stackLayout;horizontal=1;startSize=26;horizontalStack=0;resizeParent=1;resizeParentMax=0;resizeLast=0;collapsible=1;marginBottom=0;whiteSpace=wrap;html=1;" parent="1" vertex="1">
          <mxGeometry x="292" y="507" width="210" height="112" as="geometry" />
        </mxCell>
        <mxCell id="Ej15U9OfNQiC9HSzGDF1-43" value="" style="line;strokeWidth=1;fillColor=none;align=left;verticalAlign=middle;spacingTop=-1;spacingLeft=3;spacingRight=3;rotatable=0;labelPosition=right;points=[];portConstraint=eastwest;strokeColor=inherit;" parent="Ej15U9OfNQiC9HSzGDF1-42" vertex="1">
          <mxGeometry y="26" width="210" height="8" as="geometry" />
        </mxCell>
        <mxCell id="Ej15U9OfNQiC9HSzGDF1-44" value="+ Enemy (x : int , y : int)&amp;nbsp;" style="text;strokeColor=none;fillColor=none;align=left;verticalAlign=top;spacingLeft=4;spacingRight=4;overflow=hidden;rotatable=0;points=[[0,0.5],[1,0.5]];portConstraint=eastwest;whiteSpace=wrap;html=1;" parent="Ej15U9OfNQiC9HSzGDF1-42" vertex="1">
          <mxGeometry y="34" width="210" height="26" as="geometry" />
        </mxCell>
        <mxCell id="Ej15U9OfNQiC9HSzGDF1-45" value="+ draw(): void&amp;nbsp; &amp;nbsp;" style="text;strokeColor=none;fillColor=none;align=left;verticalAlign=top;spacingLeft=4;spacingRight=4;overflow=hidden;rotatable=0;points=[[0,0.5],[1,0.5]];portConstraint=eastwest;whiteSpace=wrap;html=1;" parent="Ej15U9OfNQiC9HSzGDF1-42" vertex="1">
          <mxGeometry y="60" width="210" height="26" as="geometry" />
        </mxCell>
        <mxCell id="Ej15U9OfNQiC9HSzGDF1-46" value="+ moveDown(): void" style="text;strokeColor=none;fillColor=none;align=left;verticalAlign=top;spacingLeft=4;spacingRight=4;overflow=hidden;rotatable=0;points=[[0,0.5],[1,0.5]];portConstraint=eastwest;whiteSpace=wrap;html=1;" parent="Ej15U9OfNQiC9HSzGDF1-42" vertex="1">
          <mxGeometry y="86" width="210" height="26" as="geometry" />
        </mxCell>
        <mxCell id="Ej15U9OfNQiC9HSzGDF1-56" style="edgeStyle=orthogonalEdgeStyle;rounded=0;orthogonalLoop=1;jettySize=auto;html=1;" parent="1" source="Ej15U9OfNQiC9HSzGDF1-23" target="Ej15U9OfNQiC9HSzGDF1-51" edge="1">
          <mxGeometry relative="1" as="geometry">
            <Array as="points">
              <mxPoint x="150" y="380" />
            </Array>
          </mxGeometry>
        </mxCell>
        <mxCell id="Ej15U9OfNQiC9HSzGDF1-51" value="Bullet" style="swimlane;fontStyle=1;align=center;verticalAlign=top;childLayout=stackLayout;horizontal=1;startSize=26;horizontalStack=0;resizeParent=1;resizeParentMax=0;resizeLast=0;collapsible=1;marginBottom=0;whiteSpace=wrap;html=1;" parent="1" vertex="1">
          <mxGeometry x="30" y="513" width="210" height="112" as="geometry" />
        </mxCell>
        <mxCell id="Ej15U9OfNQiC9HSzGDF1-52" value="" style="line;strokeWidth=1;fillColor=none;align=left;verticalAlign=middle;spacingTop=-1;spacingLeft=3;spacingRight=3;rotatable=0;labelPosition=right;points=[];portConstraint=eastwest;strokeColor=inherit;" parent="Ej15U9OfNQiC9HSzGDF1-51" vertex="1">
          <mxGeometry y="26" width="210" height="8" as="geometry" />
        </mxCell>
        <mxCell id="Ej15U9OfNQiC9HSzGDF1-53" value="+ Bullet (x : int , y : int)&amp;nbsp;" style="text;strokeColor=none;fillColor=none;align=left;verticalAlign=top;spacingLeft=4;spacingRight=4;overflow=hidden;rotatable=0;points=[[0,0.5],[1,0.5]];portConstraint=eastwest;whiteSpace=wrap;html=1;" parent="Ej15U9OfNQiC9HSzGDF1-51" vertex="1">
          <mxGeometry y="34" width="210" height="26" as="geometry" />
        </mxCell>
        <mxCell id="Ej15U9OfNQiC9HSzGDF1-54" value="+ draw(): void&amp;nbsp; &amp;nbsp;" style="text;strokeColor=none;fillColor=none;align=left;verticalAlign=top;spacingLeft=4;spacingRight=4;overflow=hidden;rotatable=0;points=[[0,0.5],[1,0.5]];portConstraint=eastwest;whiteSpace=wrap;html=1;" parent="Ej15U9OfNQiC9HSzGDF1-51" vertex="1">
          <mxGeometry y="60" width="210" height="26" as="geometry" />
        </mxCell>
        <mxCell id="Ej15U9OfNQiC9HSzGDF1-55" value="+ moveUp(): void" style="text;strokeColor=none;fillColor=none;align=left;verticalAlign=top;spacingLeft=4;spacingRight=4;overflow=hidden;rotatable=0;points=[[0,0.5],[1,0.5]];portConstraint=eastwest;whiteSpace=wrap;html=1;" parent="Ej15U9OfNQiC9HSzGDF1-51" vertex="1">
          <mxGeometry y="86" width="210" height="26" as="geometry" />
        </mxCell>
        <mxCell id="W9QkNB7BIVloOZYBwlRw-6" value="SpaceShooter" style="swimlane;fontStyle=1;align=center;verticalAlign=top;childLayout=stackLayout;horizontal=1;startSize=26;horizontalStack=0;resizeParent=1;resizeParentMax=0;resizeLast=0;collapsible=1;marginBottom=0;whiteSpace=wrap;html=1;" parent="1" vertex="1">
          <mxGeometry x="317" y="750" width="223" height="372" as="geometry" />
        </mxCell>
        <mxCell id="W9QkNB7BIVloOZYBwlRw-7" value="- width : int , height :int&amp;nbsp;" style="text;strokeColor=none;fillColor=none;align=left;verticalAlign=top;spacingLeft=4;spacingRight=4;overflow=hidden;rotatable=0;points=[[0,0.5],[1,0.5]];portConstraint=eastwest;whiteSpace=wrap;html=1;" parent="W9QkNB7BIVloOZYBwlRw-6" vertex="1">
          <mxGeometry y="26" width="223" height="26" as="geometry" />
        </mxCell>
        <mxCell id="W9QkNB7BIVloOZYBwlRw-10" value="- *ship :Ship" style="text;strokeColor=none;fillColor=none;align=left;verticalAlign=top;spacingLeft=4;spacingRight=4;overflow=hidden;rotatable=0;points=[[0,0.5],[1,0.5]];portConstraint=eastwest;whiteSpace=wrap;html=1;" parent="W9QkNB7BIVloOZYBwlRw-6" vertex="1">
          <mxGeometry y="52" width="223" height="26" as="geometry" />
        </mxCell>
        <mxCell id="W9QkNB7BIVloOZYBwlRw-11" value="- bullets : vector&amp;lt;Bullet&amp;gt;" style="text;strokeColor=none;fillColor=none;align=left;verticalAlign=top;spacingLeft=4;spacingRight=4;overflow=hidden;rotatable=0;points=[[0,0.5],[1,0.5]];portConstraint=eastwest;whiteSpace=wrap;html=1;" parent="W9QkNB7BIVloOZYBwlRw-6" vertex="1">
          <mxGeometry y="78" width="223" height="26" as="geometry" />
        </mxCell>
        <mxCell id="W9QkNB7BIVloOZYBwlRw-12" value="- enemies : vector&amp;lt;Enemy&amp;gt;" style="text;strokeColor=none;fillColor=none;align=left;verticalAlign=top;spacingLeft=4;spacingRight=4;overflow=hidden;rotatable=0;points=[[0,0.5],[1,0.5]];portConstraint=eastwest;whiteSpace=wrap;html=1;" parent="W9QkNB7BIVloOZYBwlRw-6" vertex="1">
          <mxGeometry y="104" width="223" height="26" as="geometry" />
        </mxCell>
        <mxCell id="IK50dmGfJA6FWBAc21dN-13" value="- gameOver : bool" style="text;strokeColor=none;fillColor=none;align=left;verticalAlign=top;spacingLeft=4;spacingRight=4;overflow=hidden;rotatable=0;points=[[0,0.5],[1,0.5]];portConstraint=eastwest;whiteSpace=wrap;html=1;" parent="W9QkNB7BIVloOZYBwlRw-6" vertex="1">
          <mxGeometry y="130" width="223" height="26" as="geometry" />
        </mxCell>
        <mxCell id="W9QkNB7BIVloOZYBwlRw-13" value="- plyr : Player" style="text;strokeColor=none;fillColor=none;align=left;verticalAlign=top;spacingLeft=4;spacingRight=4;overflow=hidden;rotatable=0;points=[[0,0.5],[1,0.5]];portConstraint=eastwest;whiteSpace=wrap;html=1;" parent="W9QkNB7BIVloOZYBwlRw-6" vertex="1">
          <mxGeometry y="156" width="223" height="26" as="geometry" />
        </mxCell>
        <mxCell id="W9QkNB7BIVloOZYBwlRw-8" value="" style="line;strokeWidth=1;fillColor=none;align=left;verticalAlign=middle;spacingTop=-1;spacingLeft=3;spacingRight=3;rotatable=0;labelPosition=right;points=[];portConstraint=eastwest;strokeColor=inherit;" parent="W9QkNB7BIVloOZYBwlRw-6" vertex="1">
          <mxGeometry y="182" width="223" height="8" as="geometry" />
        </mxCell>
        <mxCell id="A46i-bcVwEdvvH2cOwZ9-2" value="- SpaceShooter( x : int , y :int)" style="text;strokeColor=none;fillColor=none;align=left;verticalAlign=top;spacingLeft=4;spacingRight=4;overflow=hidden;rotatable=0;points=[[0,0.5],[1,0.5]];portConstraint=eastwest;whiteSpace=wrap;html=1;" vertex="1" parent="W9QkNB7BIVloOZYBwlRw-6">
          <mxGeometry y="190" width="223" height="26" as="geometry" />
        </mxCell>
        <mxCell id="W9QkNB7BIVloOZYBwlRw-9" value="- static getInstance() :SpaceShooter" style="text;strokeColor=none;fillColor=none;align=left;verticalAlign=top;spacingLeft=4;spacingRight=4;overflow=hidden;rotatable=0;points=[[0,0.5],[1,0.5]];portConstraint=eastwest;whiteSpace=wrap;html=1;" parent="W9QkNB7BIVloOZYBwlRw-6" vertex="1">
          <mxGeometry y="216" width="223" height="26" as="geometry" />
        </mxCell>
        <mxCell id="W9QkNB7BIVloOZYBwlRw-15" value="+ draw() : void" style="text;strokeColor=none;fillColor=none;align=left;verticalAlign=top;spacingLeft=4;spacingRight=4;overflow=hidden;rotatable=0;points=[[0,0.5],[1,0.5]];portConstraint=eastwest;whiteSpace=wrap;html=1;" parent="W9QkNB7BIVloOZYBwlRw-6" vertex="1">
          <mxGeometry y="242" width="223" height="26" as="geometry" />
        </mxCell>
        <mxCell id="W9QkNB7BIVloOZYBwlRw-16" value="+ update() : void" style="text;strokeColor=none;fillColor=none;align=left;verticalAlign=top;spacingLeft=4;spacingRight=4;overflow=hidden;rotatable=0;points=[[0,0.5],[1,0.5]];portConstraint=eastwest;whiteSpace=wrap;html=1;" parent="W9QkNB7BIVloOZYBwlRw-6" vertex="1">
          <mxGeometry y="268" width="223" height="26" as="geometry" />
        </mxCell>
        <mxCell id="W9QkNB7BIVloOZYBwlRw-17" value="+ handleInput(input :char): void" style="text;strokeColor=none;fillColor=none;align=left;verticalAlign=top;spacingLeft=4;spacingRight=4;overflow=hidden;rotatable=0;points=[[0,0.5],[1,0.5]];portConstraint=eastwest;whiteSpace=wrap;html=1;" parent="W9QkNB7BIVloOZYBwlRw-6" vertex="1">
          <mxGeometry y="294" width="223" height="26" as="geometry" />
        </mxCell>
        <mxCell id="W9QkNB7BIVloOZYBwlRw-18" value="+ gameOver() : bool" style="text;strokeColor=none;fillColor=none;align=left;verticalAlign=top;spacingLeft=4;spacingRight=4;overflow=hidden;rotatable=0;points=[[0,0.5],[1,0.5]];portConstraint=eastwest;whiteSpace=wrap;html=1;" parent="W9QkNB7BIVloOZYBwlRw-6" vertex="1">
          <mxGeometry y="320" width="223" height="26" as="geometry" />
        </mxCell>
        <mxCell id="W9QkNB7BIVloOZYBwlRw-19" value="+ getScore() : int" style="text;strokeColor=none;fillColor=none;align=left;verticalAlign=top;spacingLeft=4;spacingRight=4;overflow=hidden;rotatable=0;points=[[0,0.5],[1,0.5]];portConstraint=eastwest;whiteSpace=wrap;html=1;" parent="W9QkNB7BIVloOZYBwlRw-6" vertex="1">
          <mxGeometry y="346" width="223" height="26" as="geometry" />
        </mxCell>
        <mxCell id="W9QkNB7BIVloOZYBwlRw-23" value="" style="endArrow=diamondThin;endFill=1;endSize=24;html=1;rounded=0;exitX=0.436;exitY=1.166;exitDx=0;exitDy=0;exitPerimeter=0;entryX=0.295;entryY=-0.013;entryDx=0;entryDy=0;entryPerimeter=0;" parent="1" source="Ej15U9OfNQiC9HSzGDF1-46" target="W9QkNB7BIVloOZYBwlRw-6" edge="1">
          <mxGeometry width="160" relative="1" as="geometry">
            <mxPoint x="505" y="680" as="sourcePoint" />
            <mxPoint x="345" y="680" as="targetPoint" />
          </mxGeometry>
        </mxCell>
        <mxCell id="W9QkNB7BIVloOZYBwlRw-25" value="" style="endArrow=diamondThin;endFill=1;endSize=24;html=1;rounded=0;entryX=0;entryY=0.5;entryDx=0;entryDy=0;exitX=0.476;exitY=1.192;exitDx=0;exitDy=0;exitPerimeter=0;" parent="1" source="Ej15U9OfNQiC9HSzGDF1-55" target="W9QkNB7BIVloOZYBwlRw-11" edge="1">
          <mxGeometry width="160" relative="1" as="geometry">
            <mxPoint x="130" y="840" as="sourcePoint" />
            <mxPoint x="292" y="880" as="targetPoint" />
            <Array as="points">
              <mxPoint x="130" y="841" />
            </Array>
          </mxGeometry>
        </mxCell>
        <mxCell id="Ej15U9OfNQiC9HSzGDF1-39" value="" style="edgeStyle=orthogonalEdgeStyle;rounded=0;orthogonalLoop=1;jettySize=auto;html=1;" parent="1" source="Ej15U9OfNQiC9HSzGDF1-26" target="Ej15U9OfNQiC9HSzGDF1-32" edge="1">
          <mxGeometry relative="1" as="geometry" />
        </mxCell>
        <mxCell id="IK50dmGfJA6FWBAc21dN-5" value="Player" style="swimlane;fontStyle=1;align=center;verticalAlign=top;childLayout=stackLayout;horizontal=1;startSize=26;horizontalStack=0;resizeParent=1;resizeParentMax=0;resizeLast=0;collapsible=1;marginBottom=0;whiteSpace=wrap;html=1;" parent="1" vertex="1">
          <mxGeometry x="692" y="860" width="420" height="528" as="geometry" />
        </mxCell>
        <mxCell id="IK50dmGfJA6FWBAc21dN-10" value="Map &amp;lt;String , String&amp;gt; Player_data" style="text;strokeColor=none;fillColor=none;align=left;verticalAlign=top;spacingLeft=4;spacingRight=4;overflow=hidden;rotatable=0;points=[[0,0.5],[1,0.5]];portConstraint=eastwest;whiteSpace=wrap;html=1;" parent="IK50dmGfJA6FWBAc21dN-5" vertex="1">
          <mxGeometry y="26" width="420" height="26" as="geometry" />
        </mxCell>
        <mxCell id="IK50dmGfJA6FWBAc21dN-7" value="" style="line;strokeWidth=1;fillColor=none;align=left;verticalAlign=middle;spacingTop=-1;spacingLeft=3;spacingRight=3;rotatable=0;labelPosition=right;points=[];portConstraint=eastwest;strokeColor=inherit;" parent="IK50dmGfJA6FWBAc21dN-5" vertex="1">
          <mxGeometry y="52" width="420" height="8" as="geometry" />
        </mxCell>
        <mxCell id="IK50dmGfJA6FWBAc21dN-12" value="+ Player()" style="text;strokeColor=none;fillColor=none;align=left;verticalAlign=top;spacingLeft=4;spacingRight=4;overflow=hidden;rotatable=0;points=[[0,0.5],[1,0.5]];portConstraint=eastwest;whiteSpace=wrap;html=1;" parent="IK50dmGfJA6FWBAc21dN-5" vertex="1">
          <mxGeometry y="60" width="420" height="26" as="geometry" />
        </mxCell>
        <mxCell id="IK50dmGfJA6FWBAc21dN-8" value="+ Player(username :string , password : string , score :int );" style="text;strokeColor=none;fillColor=none;align=left;verticalAlign=top;spacingLeft=4;spacingRight=4;overflow=hidden;rotatable=0;points=[[0,0.5],[1,0.5]];portConstraint=eastwest;whiteSpace=wrap;html=1;" parent="IK50dmGfJA6FWBAc21dN-5" vertex="1">
          <mxGeometry y="86" width="420" height="26" as="geometry" />
        </mxCell>
        <mxCell id="A46i-bcVwEdvvH2cOwZ9-10" value="- serialize() ;" style="text;strokeColor=none;fillColor=none;align=left;verticalAlign=top;spacingLeft=4;spacingRight=4;overflow=hidden;rotatable=0;points=[[0,0.5],[1,0.5]];portConstraint=eastwest;whiteSpace=wrap;html=1;" vertex="1" parent="IK50dmGfJA6FWBAc21dN-5">
          <mxGeometry y="112" width="420" height="26" as="geometry" />
        </mxCell>
        <mxCell id="A46i-bcVwEdvvH2cOwZ9-11" value="- deserialize( data : string);" style="text;strokeColor=none;fillColor=none;align=left;verticalAlign=top;spacingLeft=4;spacingRight=4;overflow=hidden;rotatable=0;points=[[0,0.5],[1,0.5]];portConstraint=eastwest;whiteSpace=wrap;html=1;" vertex="1" parent="IK50dmGfJA6FWBAc21dN-5">
          <mxGeometry y="138" width="420" height="26" as="geometry" />
        </mxCell>
        <mxCell id="A46i-bcVwEdvvH2cOwZ9-12" value="+ getUsername() : string" style="text;strokeColor=none;fillColor=none;align=left;verticalAlign=top;spacingLeft=4;spacingRight=4;overflow=hidden;rotatable=0;points=[[0,0.5],[1,0.5]];portConstraint=eastwest;whiteSpace=wrap;html=1;" vertex="1" parent="IK50dmGfJA6FWBAc21dN-5">
          <mxGeometry y="164" width="420" height="26" as="geometry" />
        </mxCell>
        <mxCell id="A46i-bcVwEdvvH2cOwZ9-13" value="+ getPassword() : string&amp;nbsp;" style="text;strokeColor=none;fillColor=none;align=left;verticalAlign=top;spacingLeft=4;spacingRight=4;overflow=hidden;rotatable=0;points=[[0,0.5],[1,0.5]];portConstraint=eastwest;whiteSpace=wrap;html=1;" vertex="1" parent="IK50dmGfJA6FWBAc21dN-5">
          <mxGeometry y="190" width="420" height="26" as="geometry" />
        </mxCell>
        <mxCell id="A46i-bcVwEdvvH2cOwZ9-14" value="+ getScore() : string" style="text;strokeColor=none;fillColor=none;align=left;verticalAlign=top;spacingLeft=4;spacingRight=4;overflow=hidden;rotatable=0;points=[[0,0.5],[1,0.5]];portConstraint=eastwest;whiteSpace=wrap;html=1;" vertex="1" parent="IK50dmGfJA6FWBAc21dN-5">
          <mxGeometry y="216" width="420" height="26" as="geometry" />
        </mxCell>
        <mxCell id="A46i-bcVwEdvvH2cOwZ9-15" value="+ setUsername() : void" style="text;strokeColor=none;fillColor=none;align=left;verticalAlign=top;spacingLeft=4;spacingRight=4;overflow=hidden;rotatable=0;points=[[0,0.5],[1,0.5]];portConstraint=eastwest;whiteSpace=wrap;html=1;" vertex="1" parent="IK50dmGfJA6FWBAc21dN-5">
          <mxGeometry y="242" width="420" height="26" as="geometry" />
        </mxCell>
        <mxCell id="A46i-bcVwEdvvH2cOwZ9-16" value="+ setPassword() : void" style="text;strokeColor=none;fillColor=none;align=left;verticalAlign=top;spacingLeft=4;spacingRight=4;overflow=hidden;rotatable=0;points=[[0,0.5],[1,0.5]];portConstraint=eastwest;whiteSpace=wrap;html=1;" vertex="1" parent="IK50dmGfJA6FWBAc21dN-5">
          <mxGeometry y="268" width="420" height="26" as="geometry" />
        </mxCell>
        <mxCell id="A46i-bcVwEdvvH2cOwZ9-17" value="+ setScore() : void" style="text;strokeColor=none;fillColor=none;align=left;verticalAlign=top;spacingLeft=4;spacingRight=4;overflow=hidden;rotatable=0;points=[[0,0.5],[1,0.5]];portConstraint=eastwest;whiteSpace=wrap;html=1;" vertex="1" parent="IK50dmGfJA6FWBAc21dN-5">
          <mxGeometry y="294" width="420" height="26" as="geometry" />
        </mxCell>
        <mxCell id="A46i-bcVwEdvvH2cOwZ9-18" value="+ updateData( key : string , value : string)" style="text;strokeColor=none;fillColor=none;align=left;verticalAlign=top;spacingLeft=4;spacingRight=4;overflow=hidden;rotatable=0;points=[[0,0.5],[1,0.5]];portConstraint=eastwest;whiteSpace=wrap;html=1;" vertex="1" parent="IK50dmGfJA6FWBAc21dN-5">
          <mxGeometry y="320" width="420" height="26" as="geometry" />
        </mxCell>
        <mxCell id="A46i-bcVwEdvvH2cOwZ9-19" value="+ saveToFile()" style="text;strokeColor=none;fillColor=none;align=left;verticalAlign=top;spacingLeft=4;spacingRight=4;overflow=hidden;rotatable=0;points=[[0,0.5],[1,0.5]];portConstraint=eastwest;whiteSpace=wrap;html=1;" vertex="1" parent="IK50dmGfJA6FWBAc21dN-5">
          <mxGeometry y="346" width="420" height="26" as="geometry" />
        </mxCell>
        <mxCell id="A46i-bcVwEdvvH2cOwZ9-20" value="+ loadFromFile()" style="text;strokeColor=none;fillColor=none;align=left;verticalAlign=top;spacingLeft=4;spacingRight=4;overflow=hidden;rotatable=0;points=[[0,0.5],[1,0.5]];portConstraint=eastwest;whiteSpace=wrap;html=1;" vertex="1" parent="IK50dmGfJA6FWBAc21dN-5">
          <mxGeometry y="372" width="420" height="26" as="geometry" />
        </mxCell>
        <mxCell id="A46i-bcVwEdvvH2cOwZ9-21" value="+ printPlayerData()" style="text;strokeColor=none;fillColor=none;align=left;verticalAlign=top;spacingLeft=4;spacingRight=4;overflow=hidden;rotatable=0;points=[[0,0.5],[1,0.5]];portConstraint=eastwest;whiteSpace=wrap;html=1;" vertex="1" parent="IK50dmGfJA6FWBAc21dN-5">
          <mxGeometry y="398" width="420" height="26" as="geometry" />
        </mxCell>
        <mxCell id="A46i-bcVwEdvvH2cOwZ9-22" value="+ clearData()" style="text;strokeColor=none;fillColor=none;align=left;verticalAlign=top;spacingLeft=4;spacingRight=4;overflow=hidden;rotatable=0;points=[[0,0.5],[1,0.5]];portConstraint=eastwest;whiteSpace=wrap;html=1;" vertex="1" parent="IK50dmGfJA6FWBAc21dN-5">
          <mxGeometry y="424" width="420" height="26" as="geometry" />
        </mxCell>
        <mxCell id="A46i-bcVwEdvvH2cOwZ9-23" value="+static&amp;nbsp; validateUsername( username: string , password : string) ; bool" style="text;strokeColor=none;fillColor=none;align=left;verticalAlign=top;spacingLeft=4;spacingRight=4;overflow=hidden;rotatable=0;points=[[0,0.5],[1,0.5]];portConstraint=eastwest;whiteSpace=wrap;html=1;" vertex="1" parent="IK50dmGfJA6FWBAc21dN-5">
          <mxGeometry y="450" width="420" height="26" as="geometry" />
        </mxCell>
        <mxCell id="A46i-bcVwEdvvH2cOwZ9-24" value="+static&amp;nbsp; registerNewUser( username: string , password : string) ; bool" style="text;strokeColor=none;fillColor=none;align=left;verticalAlign=top;spacingLeft=4;spacingRight=4;overflow=hidden;rotatable=0;points=[[0,0.5],[1,0.5]];portConstraint=eastwest;whiteSpace=wrap;html=1;" vertex="1" parent="IK50dmGfJA6FWBAc21dN-5">
          <mxGeometry y="476" width="420" height="26" as="geometry" />
        </mxCell>
        <mxCell id="BhOhKGAgAfJnNgIlsI4x-4" value="+ operator+(scoreToAdd : int) : Player" style="text;strokeColor=none;fillColor=none;align=left;verticalAlign=top;spacingLeft=4;spacingRight=4;overflow=hidden;rotatable=0;points=[[0,0.5],[1,0.5]];portConstraint=eastwest;whiteSpace=wrap;html=1;" parent="IK50dmGfJA6FWBAc21dN-5" vertex="1">
          <mxGeometry y="502" width="420" height="26" as="geometry" />
        </mxCell>
        <mxCell id="A46i-bcVwEdvvH2cOwZ9-25" value="" style="endArrow=diamondThin;endFill=1;endSize=24;html=1;rounded=0;exitX=0;exitY=0.5;exitDx=0;exitDy=0;entryX=1;entryY=0.5;entryDx=0;entryDy=0;" edge="1" parent="1" source="IK50dmGfJA6FWBAc21dN-10" target="W9QkNB7BIVloOZYBwlRw-13">
          <mxGeometry width="160" relative="1" as="geometry">
            <mxPoint x="540" y="1200" as="sourcePoint" />
            <mxPoint x="380" y="1200" as="targetPoint" />
            <Array as="points">
              <mxPoint x="650" y="920" />
            </Array>
          </mxGeometry>
        </mxCell>
        <mxCell id="A46i-bcVwEdvvH2cOwZ9-26" value="" style="endArrow=diamondThin;endFill=0;endSize=24;html=1;rounded=0;exitX=0.647;exitY=1.107;exitDx=0;exitDy=0;exitPerimeter=0;entryX=1;entryY=0.5;entryDx=0;entryDy=0;" edge="1" parent="1" source="Ej15U9OfNQiC9HSzGDF1-40" target="W9QkNB7BIVloOZYBwlRw-10">
          <mxGeometry width="160" relative="1" as="geometry">
            <mxPoint x="680" y="700" as="sourcePoint" />
            <mxPoint x="840" y="700" as="targetPoint" />
            <Array as="points">
              <mxPoint x="682" y="690" />
              <mxPoint x="682" y="815" />
            </Array>
          </mxGeometry>
        </mxCell>
      </root>
    </mxGraphModel>
  </diagram>
</mxfile>
